<mxfile host="drawio-plugin" modified="2023-02-20T03:11:23.329Z" agent="5.0 (Macintosh; Intel Mac OS X 10_15_7) AppleWebKit/537.36 (KHTML, like Gecko) Chrome/104.0.5112.102 Safari/537.36" etag="7vzvThTJPnslN15xuGHq" version="20.5.3" type="embed"><diagram name="Page-1" id="R-oQhzFSv7XG-evyQhH9"><mxGraphModel dx="1304" dy="978" grid="1" gridSize="10" guides="1" tooltips="1" connect="1" arrows="1" fold="1" page="0" pageScale="1" pageWidth="1169" pageHeight="827" background="#000000" math="0" shadow="0"><root><mxCell id="0"/><mxCell id="1" parent="0"/><mxCell id="Akr3IfSS3m8vHxKkkIhM-1" value="" style="rounded=1;whiteSpace=wrap;html=1;fillColor=#647687;strokeColor=#314354;fontColor=#ffffff;" parent="1" vertex="1"><mxGeometry x="-40" y="200" width="800" height="440" as="geometry"/></mxCell><mxCell id="Akr3IfSS3m8vHxKkkIhM-26" value="MySQL" style="rounded=1;whiteSpace=wrap;html=1;" parent="1" vertex="1"><mxGeometry y="570" width="170" height="60" as="geometry"/></mxCell><mxCell id="68" value="" style="group;rounded=1;arcSize=41;" parent="1" vertex="1" connectable="0"><mxGeometry x="-40" y="-40" width="800" height="200" as="geometry"/></mxCell><mxCell id="Akr3IfSS3m8vHxKkkIhM-29" value="" style="rounded=1;whiteSpace=wrap;html=1;glass=0;fillColor=#647687;strokeColor=#314354;fontColor=#ffffff;arcSize=36;" parent="68" vertex="1"><mxGeometry width="800" height="200" as="geometry"/></mxCell><mxCell id="26" value="" style="group;rounded=1;" parent="68" vertex="1" connectable="0"><mxGeometry x="164.6886075949367" y="47.22222222222222" width="115.18987341772153" height="105.55555555555556" as="geometry"/></mxCell><mxCell id="18" value="" style="rounded=1;whiteSpace=wrap;html=1;" parent="26" vertex="1"><mxGeometry x="-6.329113924050633" y="-5.555555555555555" width="121.51898734177216" height="111.11111111111111" as="geometry"/></mxCell><mxCell id="Akr3IfSS3m8vHxKkkIhM-47" value="list" style="rounded=1;whiteSpace=wrap;html=1;glass=0;fillColor=#647687;strokeColor=#314354;fontColor=#ffffff;" parent="26" vertex="1"><mxGeometry x="5.063291139240507" y="66.66666666666667" width="91.13924050632912" height="22.22222222222222" as="geometry"/></mxCell><mxCell id="4" value="action" style="rounded=1;whiteSpace=wrap;html=1;glass=0;fillColor=#647687;strokeColor=#314354;fontColor=#ffffff;" parent="26" vertex="1"><mxGeometry x="5.063291139240507" y="33.333333333333336" width="91.13924050632912" height="22.22222222222222" as="geometry"/></mxCell><mxCell id="15" value="publish" style="text;html=1;strokeColor=none;fillColor=none;align=center;verticalAlign=middle;whiteSpace=wrap;rounded=1;" parent="26" vertex="1"><mxGeometry x="20.253164556962027" width="60.75949367088608" height="33.333333333333336" as="geometry"/></mxCell><mxCell id="27" value="" style="group;rounded=1;" parent="68" vertex="1" connectable="0"><mxGeometry x="30.37974683544304" y="41.66666666666667" width="121.51898734177216" height="111.11111111111111" as="geometry"/></mxCell><mxCell id="12" value="" style="rounded=1;whiteSpace=wrap;html=1;" parent="27" vertex="1"><mxGeometry width="121.51898734177216" height="111.11111111111111" as="geometry"/></mxCell><mxCell id="3" value="Login" style="rounded=1;whiteSpace=wrap;html=1;glass=0;fillColor=#647687;strokeColor=#314354;fontColor=#ffffff;gradientColor=none;aspect=fixed;" parent="27" vertex="1"><mxGeometry x="15.18987341772152" y="66.66666666666667" width="90" height="20" as="geometry"/></mxCell><mxCell id="16" value="register" style="rounded=1;whiteSpace=wrap;html=1;glass=0;fillColor=#647687;strokeColor=#314354;fontColor=#ffffff;gradientColor=none;aspect=fixed;" parent="27" vertex="1"><mxGeometry x="15.18987341772152" y="33.333333333333336" width="90" height="20" as="geometry"/></mxCell><mxCell id="24" value="user" style="text;html=1;strokeColor=none;fillColor=none;align=center;verticalAlign=middle;whiteSpace=wrap;rounded=1;" parent="27" vertex="1"><mxGeometry x="30.37974683544304" width="60.75949367088608" height="33.333333333333336" as="geometry"/></mxCell><mxCell id="30" value="" style="group;rounded=1;" parent="68" vertex="1" connectable="0"><mxGeometry x="289.873417721519" y="47.22222222222222" width="115.18987341772153" height="105.55555555555556" as="geometry"/></mxCell><mxCell id="31" value="" style="rounded=1;whiteSpace=wrap;html=1;" parent="30" vertex="1"><mxGeometry x="-6.329113924050633" y="-5.555555555555555" width="121.51898734177216" height="111.11111111111111" as="geometry"/></mxCell><mxCell id="32" value="list" style="rounded=1;whiteSpace=wrap;html=1;glass=0;fillColor=#647687;strokeColor=#314354;fontColor=#ffffff;" parent="30" vertex="1"><mxGeometry x="5.063291139240507" y="66.66666666666667" width="91.13924050632912" height="22.22222222222222" as="geometry"/></mxCell><mxCell id="33" value="action" style="rounded=1;whiteSpace=wrap;html=1;glass=0;fillColor=#647687;strokeColor=#314354;fontColor=#ffffff;" parent="30" vertex="1"><mxGeometry x="5.063291139240507" y="33.333333333333336" width="91.13924050632912" height="22.22222222222222" as="geometry"/></mxCell><mxCell id="34" value="favorite" style="text;html=1;strokeColor=none;fillColor=none;align=center;verticalAlign=middle;whiteSpace=wrap;rounded=1;" parent="30" vertex="1"><mxGeometry x="20.253164556962027" width="60.75949367088608" height="33.333333333333336" as="geometry"/></mxCell><mxCell id="50" value="" style="group;rounded=1;" parent="68" vertex="1" connectable="0"><mxGeometry x="668.3544303797469" y="47.22222222222222" width="111.39240506329115" height="105.55555555555556" as="geometry"/></mxCell><mxCell id="51" value="" style="rounded=1;whiteSpace=wrap;html=1;" parent="50" vertex="1"><mxGeometry x="-6.120461816664348" y="-5.555555555555555" width="117.5128668799555" height="111.11111111111111" as="geometry"/></mxCell><mxCell id="52" value="action" style="rounded=1;whiteSpace=wrap;html=1;glass=0;fillColor=#647687;strokeColor=#314354;fontColor=#ffffff;" parent="50" vertex="1"><mxGeometry x="4.896369453331479" y="66.66666666666667" width="88.13465015996663" height="22.22222222222222" as="geometry"/></mxCell><mxCell id="53" value="chat" style="rounded=1;whiteSpace=wrap;html=1;glass=0;fillColor=#647687;strokeColor=#314354;fontColor=#ffffff;" parent="50" vertex="1"><mxGeometry x="4.896369453331479" y="33.333333333333336" width="88.13465015996663" height="22.22222222222222" as="geometry"/></mxCell><mxCell id="54" value="message" style="text;html=1;strokeColor=none;fillColor=none;align=center;verticalAlign=middle;whiteSpace=wrap;rounded=1;" parent="50" vertex="1"><mxGeometry x="19.585477813325916" width="58.75643343997775" height="33.333333333333336" as="geometry"/></mxCell><mxCell id="36" value="" style="group;rounded=1;" parent="68" vertex="1" connectable="0"><mxGeometry x="415.18987341772157" y="47.22222222222222" width="324.0506329113924" height="144.44444444444446" as="geometry"/></mxCell><mxCell id="37" value="" style="rounded=1;whiteSpace=wrap;html=1;" parent="36" vertex="1"><mxGeometry x="-6.329113924050633" y="-5.555555555555555" width="121.51898734177216" height="111.11111111111111" as="geometry"/></mxCell><mxCell id="38" value="list" style="rounded=1;whiteSpace=wrap;html=1;glass=0;fillColor=#647687;strokeColor=#314354;fontColor=#ffffff;" parent="36" vertex="1"><mxGeometry x="5.063291139240507" y="66.66666666666667" width="91.13924050632912" height="22.22222222222222" as="geometry"/></mxCell><mxCell id="39" value="action" style="rounded=1;whiteSpace=wrap;html=1;glass=0;fillColor=#647687;strokeColor=#314354;fontColor=#ffffff;" parent="36" vertex="1"><mxGeometry x="5.063291139240507" y="33.333333333333336" width="91.13924050632912" height="22.22222222222222" as="geometry"/></mxCell><mxCell id="40" value="comment" style="text;html=1;strokeColor=none;fillColor=none;align=center;verticalAlign=middle;whiteSpace=wrap;rounded=1;" parent="36" vertex="1"><mxGeometry x="20.253164556962027" width="60.75949367088608" height="33.333333333333336" as="geometry"/></mxCell><mxCell id="67" value="" style="group;rounded=1;" parent="68" vertex="1" connectable="0"><mxGeometry x="536.7088607594937" y="41.66666666666667" width="121.51898734177216" height="111.11111111111111" as="geometry"/></mxCell><mxCell id="63" value="" style="rounded=1;whiteSpace=wrap;html=1;" parent="67" vertex="1"><mxGeometry width="121.51898734177216" height="111.11111111111111" as="geometry"/></mxCell><mxCell id="41" value="" style="group;rounded=1;" parent="67" vertex="1" connectable="0"><mxGeometry x="5.063291139240507" width="111.39240506329115" height="105.55555555555556" as="geometry"/></mxCell><mxCell id="61" value="" style="group;rounded=1;" parent="41" vertex="1" connectable="0"><mxGeometry x="4.896369453331479" width="102.82008624287118" height="100" as="geometry"/></mxCell><mxCell id="43" value="friend/list" style="rounded=1;whiteSpace=wrap;html=1;glass=0;fillColor=#647687;strokeColor=#314354;fontColor=#ffffff;" parent="61" vertex="1"><mxGeometry y="66.66666666666667" width="88.13465015996663" height="22.22222222222222" as="geometry"/></mxCell><mxCell id="44" value="follow/list" style="rounded=1;whiteSpace=wrap;html=1;glass=0;fillColor=#647687;strokeColor=#314354;fontColor=#ffffff;" parent="61" vertex="1"><mxGeometry y="33.333333333333336" width="88.13465015996663" height="22.22222222222222" as="geometry"/></mxCell><mxCell id="49" value="relation" style="text;html=1;strokeColor=none;fillColor=none;align=center;verticalAlign=middle;whiteSpace=wrap;rounded=1;" parent="61" vertex="1"><mxGeometry x="14.689108359994435" width="58.75643343997775" height="33.333333333333336" as="geometry"/></mxCell><mxCell id="95" value="" style="group" parent="1" vertex="1" connectable="0"><mxGeometry x="-10" y="340" width="680" height="260" as="geometry"/></mxCell><mxCell id="81" value="" style="rounded=1;whiteSpace=wrap;html=1;" parent="95" vertex="1"><mxGeometry width="635.41" height="200" as="geometry"/></mxCell><mxCell id="82" value="" style="group" parent="95" vertex="1" connectable="0"><mxGeometry x="20.29933936873012" y="20.003043478260874" width="646.5573770491803" height="226.08695652173913" as="geometry"/></mxCell><mxCell id="84" value="User&amp;nbsp;" style="rounded=1;whiteSpace=wrap;html=1;" parent="82" vertex="1"><mxGeometry y="90.43478260869566" width="133.7704918032787" height="67.82608695652176" as="geometry"/></mxCell><mxCell id="85" value="Publish" style="rounded=1;whiteSpace=wrap;html=1;" parent="82" vertex="1"><mxGeometry width="133.7704918032787" height="67.82608695652176" as="geometry"/></mxCell><mxCell id="87" value="Favorite" style="rounded=1;whiteSpace=wrap;html=1;" parent="82" vertex="1"><mxGeometry x="144.91803278688522" width="133.7704918032787" height="67.82608695652176" as="geometry"/></mxCell><mxCell id="93" value="MinIO-Client" style="rounded=1;whiteSpace=wrap;html=1;" parent="82" vertex="1"><mxGeometry x="456.7170834352826" y="90.43478260869566" width="133.7704918032787" height="67.82608695652176" as="geometry"/></mxCell><mxCell id="89" value="Message" style="rounded=1;whiteSpace=wrap;html=1;" parent="95" vertex="1"><mxGeometry x="162.39271837533641" y="110.00304347826085" width="133.7704918032787" height="67.82608695652176" as="geometry"/></mxCell><mxCell id="90" value="UserInfo" style="rounded=1;whiteSpace=wrap;html=1;" parent="95" vertex="1"><mxGeometry x="324.7839393197944" y="20.00782608695647" width="133.7704918032787" height="67.82608695652176" as="geometry"/></mxCell><mxCell id="94" value="Comment" style="rounded=1;whiteSpace=wrap;html=1;" parent="95" vertex="1"><mxGeometry x="477.00993393687304" y="20.003043478260853" width="133.7704918032787" height="67.82608695652176" as="geometry"/></mxCell><mxCell id="88" value="Follow" style="rounded=1;whiteSpace=wrap;html=1;" parent="95" vertex="1"><mxGeometry x="324.780778076829" y="110.00782608695651" width="133.7704918032787" height="67.82608695652176" as="geometry"/></mxCell><mxCell id="104" value="链路跟踪?" style="rounded=1;whiteSpace=wrap;html=1;glass=0;" parent="1" vertex="1"><mxGeometry x="820" y="200" width="105" height="50" as="geometry"/></mxCell><mxCell id="9" value="MinIO" style="rounded=1;whiteSpace=wrap;html=1;glass=0;" parent="1" vertex="1"><mxGeometry x="180" y="570" width="170" height="60" as="geometry"/></mxCell><mxCell id="8" value="JWT" style="rounded=1;whiteSpace=wrap;html=1;glass=0;" parent="1" vertex="1"><mxGeometry x="642.5" y="440" width="107.5" height="35" as="geometry"/></mxCell><mxCell id="Akr3IfSS3m8vHxKkkIhM-27" value="Redis" style="rounded=1;whiteSpace=wrap;html=1;glass=0;" parent="1" vertex="1"><mxGeometry x="642.5" y="340" width="107.5" height="40" as="geometry"/></mxCell><mxCell id="105" value="Gateway" style="rounded=0;whiteSpace=wrap;html=1;" vertex="1" parent="1"><mxGeometry x="240" y="210" width="120" height="60" as="geometry"/></mxCell><mxCell id="106" value="" style="endArrow=classic;html=1;rounded=0;" edge="1" parent="1" source="105"><mxGeometry width="50" height="50" relative="1" as="geometry"><mxPoint x="340" y="400" as="sourcePoint"/><mxPoint x="300" y="330" as="targetPoint"/></mxGeometry></mxCell><mxCell id="Akr3IfSS3m8vHxKkkIhM-101" value="kafka" style="rounded=1;whiteSpace=wrap;html=1;glass=0;" parent="1" vertex="1"><mxGeometry x="642.5" y="390" width="107.5" height="40" as="geometry"/></mxCell><mxCell id="107" value="ETCD" style="rounded=1;whiteSpace=wrap;html=1;glass=0;" vertex="1" parent="1"><mxGeometry x="642.5" y="490" width="107.5" height="35" as="geometry"/></mxCell></root></mxGraphModel></diagram></mxfile>